<svg width="393" height="12464" viewBox="0 0 393 12464" fill="none" xmlns="http://www.w3.org/2000/svg">
<g clip-path="url(#clip0_248_5885)">
<rect width="393" height="12464" fill="#000F19"/>
<g filter="url(#filter0_f_248_5885)">
<path d="M174 12.5C174 116.053 80.8752 200 -34 200C-148.875 200 -242 116.053 -242 12.5C-242 -91.0534 -148.875 -175 -34 -175C80.8752 -175 174 -91.0534 174 12.5Z" fill="#54C5AD" fill-opacity="0.95"/>
</g>
<g filter="url(#filter1_f_248_5885)">
<ellipse cx="332" cy="495" rx="169" ry="170" fill="#52A7C6"/>
</g>
<g opacity="0.2" filter="url(#filter2_bddiiiiii_248_5885)">
<rect x="332" y="90.4124" width="100" height="102.883" rx="50" fill="white" fill-opacity="0.01" shape-rendering="crispEdges"/>
</g>
<g opacity="0.2" filter="url(#filter3_bddiiiiii_248_5885)">
<rect x="-48" y="2451.53" width="100" height="102.883" rx="50" fill="white" fill-opacity="0.01" shape-rendering="crispEdges"/>
</g>
<g opacity="0.4" filter="url(#filter4_bddiiiiii_248_5885)">
<rect width="358.14" height="366.426" rx="179.07" transform="matrix(0.986019 0.166635 -0.15898 0.987282 -266.745 496.749)" fill="white" fill-opacity="0.01" shape-rendering="crispEdges"/>
</g>
<g filter="url(#filter5_biiiiii_248_5885)">
<rect width="442.044" height="432.95" rx="213.448" transform="matrix(-0.300672 -0.953728 0.946635 -0.322307 392.91 2895.23)" fill="white" fill-opacity="0.01"/>
</g>
<g opacity="0.2">
<path d="M-14.3694 844.99L-20.7559 833.495L-14.3694 822H-1.59716L4.78862 833.495L-1.59716 844.99H-14.3694Z" stroke="#0095FF" stroke-width="0.51779"/>
<path d="M4.752 856.442L-1.63379 844.947L4.752 833.452H17.5242L23.91 844.947L17.5242 856.442H4.752Z" stroke="#0095FF" stroke-width="0.51779"/>
<path d="M23.8747 844.99L17.4883 833.495L23.8747 822H36.647L43.0328 833.495L36.647 844.99H23.8747Z" stroke="#0095FF" stroke-width="0.51779"/>
<path d="M42.9961 856.442L36.6104 844.947L42.9961 833.452H55.7684L62.1548 844.947L55.7684 856.442H42.9961Z" stroke="#0095FF" stroke-width="0.51779"/>
<path d="M62.1189 844.99L55.7324 833.495L62.1189 822H74.8911L81.2769 833.495L74.8911 844.99H62.1189Z" stroke="#0095FF" stroke-width="0.51779"/>
<path d="M81.5652 856.442L75.1787 844.947L81.5652 833.452H94.3374L100.723 844.947L94.3374 856.442H81.5652Z" stroke="#0095FF" stroke-width="0.51779"/>
<path d="M100.687 844.99L94.3008 833.495L100.687 822H113.459L119.845 833.495L113.459 844.99H100.687Z" stroke="#0095FF" stroke-width="0.51779"/>
<path d="M119.809 856.442L113.423 844.947L119.809 833.452H132.58L138.967 844.947L132.58 856.442H119.809Z" stroke="#0095FF" stroke-width="0.51779"/>
<path d="M138.932 844.99L132.545 833.495L138.932 822H151.704L158.089 833.495L151.704 844.99H138.932Z" stroke="#0095FF" stroke-width="0.51779"/>
<path d="M158.053 856.442L151.667 844.947L158.053 833.452H170.824L177.211 844.947L170.824 856.442H158.053Z" stroke="#0095FF" stroke-width="0.51779"/>
<path d="M177.176 844.99L170.789 833.495L177.176 822H189.947L196.334 833.495L189.947 844.99H177.176Z" stroke="#0095FF" stroke-width="0.51779"/>
<path d="M196.297 856.442L189.911 844.947L196.297 833.452H209.069L215.456 844.947L209.069 856.442H196.297Z" stroke="#0095FF" stroke-width="0.51779"/>
<path d="M215.42 844.99L209.033 833.495L215.42 822H228.191L234.578 833.495L228.191 844.99H215.42Z" stroke="#0095FF" stroke-width="0.51779"/>
<path d="M234.54 856.442L228.155 844.947L234.54 833.452H247.313L253.698 844.947L247.313 856.442H234.54Z" stroke="#0095FF" stroke-width="0.51779"/>
<path d="M253.664 844.99L247.277 833.495L253.664 822H266.435L272.822 833.495L266.435 844.99H253.664Z" stroke="#0095FF" stroke-width="0.51779"/>
<path d="M272.786 856.442L266.4 844.947L272.786 833.452H285.557L291.943 844.947L285.557 856.442H272.786Z" stroke="#0095FF" stroke-width="0.51779"/>
<path d="M291.909 844.99L285.522 833.495L291.909 822H304.681L311.067 833.495L304.681 844.99H291.909Z" stroke="#0095FF" stroke-width="0.51779"/>
<path d="M311.031 856.442L304.644 844.947L311.031 833.452H323.803L330.188 844.947L323.803 856.442H311.031Z" stroke="#0095FF" stroke-width="0.51779"/>
<path d="M330.152 844.99L323.766 833.495L330.152 822H342.923L349.31 833.495L342.923 844.99H330.152Z" stroke="#0095FF" stroke-width="0.51779"/>
<path d="M349.598 856.442L343.212 844.947L349.598 833.452H362.371L368.756 844.947L362.371 856.442H349.598Z" stroke="#0095FF" stroke-width="0.51779"/>
<path d="M368.721 844.99L362.334 833.495L368.721 822H381.491L387.878 833.495L381.491 844.99H368.721Z" stroke="#0095FF" stroke-width="0.51779"/>
<path d="M387.843 856.442L381.457 844.947L387.843 833.452H400.614L407 844.947L400.614 856.442H387.843Z" stroke="#0095FF" stroke-width="0.51779"/>
</g>
<g opacity="0.2">
<path d="M-14.3694 867.894L-20.7559 856.398L-14.3694 844.903H-1.59716L4.78862 856.398L-1.59716 867.894H-14.3694Z" stroke="#0095FF" stroke-width="0.51779"/>
<path d="M4.752 879.345L-1.63379 867.85L4.752 856.355H17.5242L23.91 867.85L17.5242 879.345H4.752Z" stroke="#0095FF" stroke-width="0.51779"/>
<path d="M23.8747 867.894L17.4883 856.398L23.8747 844.903H36.647L43.0328 856.398L36.647 867.894H23.8747Z" stroke="#0095FF" stroke-width="0.51779"/>
<path d="M42.9961 879.345L36.6104 867.85L42.9961 856.355H55.7684L62.1548 867.85L55.7684 879.345H42.9961Z" stroke="#0095FF" stroke-width="0.51779"/>
<path d="M62.1189 867.894L55.7324 856.398L62.1189 844.903H74.8911L81.2769 856.398L74.8911 867.894H62.1189Z" stroke="#0095FF" stroke-width="0.51779"/>
<path d="M81.5652 879.345L75.1787 867.85L81.5652 856.355H94.3374L100.723 867.85L94.3374 879.345H81.5652Z" stroke="#0095FF" stroke-width="0.51779"/>
<path d="M100.687 867.894L94.3008 856.398L100.687 844.903H113.459L119.845 856.398L113.459 867.894H100.687Z" stroke="#0095FF" stroke-width="0.51779"/>
<path d="M119.809 879.345L113.423 867.85L119.809 856.355H132.58L138.967 867.85L132.58 879.345H119.809Z" stroke="#0095FF" stroke-width="0.51779"/>
<path d="M138.932 867.894L132.545 856.398L138.932 844.903H151.704L158.089 856.398L151.704 867.894H138.932Z" stroke="#0095FF" stroke-width="0.51779"/>
<path d="M158.053 879.345L151.667 867.85L158.053 856.355H170.824L177.211 867.85L170.824 879.345H158.053Z" stroke="#0095FF" stroke-width="0.51779"/>
<path d="M177.176 867.894L170.789 856.398L177.176 844.903H189.947L196.334 856.398L189.947 867.894H177.176Z" stroke="#0095FF" stroke-width="0.51779"/>
<path d="M196.297 879.345L189.911 867.85L196.297 856.355H209.069L215.456 867.85L209.069 879.345H196.297Z" stroke="#0095FF" stroke-width="0.51779"/>
<path d="M215.42 867.894L209.033 856.398L215.42 844.903H228.191L234.578 856.398L228.191 867.894H215.42Z" stroke="#0095FF" stroke-width="0.51779"/>
<path d="M234.54 879.345L228.155 867.85L234.54 856.355H247.313L253.698 867.85L247.313 879.345H234.54Z" stroke="#0095FF" stroke-width="0.51779"/>
<path d="M253.664 867.894L247.277 856.398L253.664 844.903H266.435L272.822 856.398L266.435 867.894H253.664Z" stroke="#0095FF" stroke-width="0.51779"/>
<path d="M272.786 879.345L266.4 867.85L272.786 856.355H285.557L291.943 867.85L285.557 879.345H272.786Z" stroke="#0095FF" stroke-width="0.51779"/>
<path d="M291.909 867.894L285.522 856.398L291.909 844.903H304.681L311.067 856.398L304.681 867.894H291.909Z" stroke="#0095FF" stroke-width="0.51779"/>
<path d="M311.031 879.345L304.644 867.85L311.031 856.355H323.803L330.188 867.85L323.803 879.345H311.031Z" stroke="#0095FF" stroke-width="0.51779"/>
<path d="M330.152 867.894L323.766 856.398L330.152 844.903H342.923L349.31 856.398L342.923 867.894H330.152Z" stroke="#0095FF" stroke-width="0.51779"/>
<path d="M349.598 879.345L343.212 867.85L349.598 856.355H362.371L368.756 867.85L362.371 879.345H349.598Z" stroke="#0095FF" stroke-width="0.51779"/>
<path d="M368.721 867.894L362.334 856.398L368.721 844.903H381.491L387.878 856.398L381.491 867.894H368.721Z" stroke="#0095FF" stroke-width="0.51779"/>
<path d="M387.843 879.345L381.457 867.85L387.843 856.355H400.614L407 867.85L400.614 879.345H387.843Z" stroke="#0095FF" stroke-width="0.51779"/>
</g>
<g opacity="0.2">
<path d="M-14.3694 891.134L-20.7559 879.639L-14.3694 868.144H-1.59716L4.78862 879.639L-1.59716 891.134H-14.3694Z" stroke="#0095FF" stroke-width="0.51779"/>
<path d="M4.752 902.586L-1.63379 891.091L4.752 879.596H17.5242L23.91 891.091L17.5242 902.586H4.752Z" stroke="#0095FF" stroke-width="0.51779"/>
<path d="M23.8747 891.134L17.4883 879.639L23.8747 868.144H36.647L43.0328 879.639L36.647 891.134H23.8747Z" stroke="#0095FF" stroke-width="0.51779"/>
<path d="M42.9961 902.586L36.6104 891.091L42.9961 879.596H55.7684L62.1548 891.091L55.7684 902.586H42.9961Z" stroke="#0095FF" stroke-width="0.51779"/>
<path d="M62.1189 891.134L55.7324 879.639L62.1189 868.144H74.8911L81.2769 879.639L74.8911 891.134H62.1189Z" stroke="#0095FF" stroke-width="0.51779"/>
<path d="M81.5652 902.586L75.1787 891.091L81.5652 879.596H94.3374L100.723 891.091L94.3374 902.586H81.5652Z" stroke="#0095FF" stroke-width="0.51779"/>
<path d="M100.687 891.134L94.3008 879.639L100.687 868.144H113.459L119.845 879.639L113.459 891.134H100.687Z" stroke="#0095FF" stroke-width="0.51779"/>
<path d="M119.809 902.586L113.423 891.091L119.809 879.596H132.58L138.967 891.091L132.58 902.586H119.809Z" stroke="#0095FF" stroke-width="0.51779"/>
<path d="M138.932 891.134L132.545 879.639L138.932 868.144H151.704L158.089 879.639L151.704 891.134H138.932Z" stroke="#0095FF" stroke-width="0.51779"/>
<path d="M158.053 902.586L151.667 891.091L158.053 879.596H170.824L177.211 891.091L170.824 902.586H158.053Z" stroke="#0095FF" stroke-width="0.51779"/>
<path d="M177.176 891.134L170.789 879.639L177.176 868.144H189.947L196.334 879.639L189.947 891.134H177.176Z" stroke="#0095FF" stroke-width="0.51779"/>
<path d="M196.297 902.586L189.911 891.091L196.297 879.596H209.069L215.456 891.091L209.069 902.586H196.297Z" stroke="#0095FF" stroke-width="0.51779"/>
<path d="M215.42 891.134L209.033 879.639L215.42 868.144H228.191L234.578 879.639L228.191 891.134H215.42Z" stroke="#0095FF" stroke-width="0.51779"/>
<path d="M234.54 902.586L228.155 891.091L234.54 879.596H247.313L253.698 891.091L247.313 902.586H234.54Z" stroke="#0095FF" stroke-width="0.51779"/>
<path d="M253.664 891.134L247.277 879.639L253.664 868.144H266.435L272.822 879.639L266.435 891.134H253.664Z" stroke="#0095FF" stroke-width="0.51779"/>
<path d="M272.786 902.586L266.4 891.091L272.786 879.596H285.557L291.943 891.091L285.557 902.586H272.786Z" stroke="#0095FF" stroke-width="0.51779"/>
<path d="M291.909 891.134L285.522 879.639L291.909 868.144H304.681L311.067 879.639L304.681 891.134H291.909Z" stroke="#0095FF" stroke-width="0.51779"/>
<path d="M311.031 902.586L304.644 891.091L311.031 879.596H323.803L330.188 891.091L323.803 902.586H311.031Z" stroke="#0095FF" stroke-width="0.51779"/>
<path d="M330.152 891.134L323.766 879.639L330.152 868.144H342.923L349.31 879.639L342.923 891.134H330.152Z" stroke="#0095FF" stroke-width="0.51779"/>
<path d="M349.598 902.586L343.212 891.091L349.598 879.596H362.371L368.756 891.091L362.371 902.586H349.598Z" stroke="#0095FF" stroke-width="0.51779"/>
<path d="M368.721 891.134L362.334 879.639L368.721 868.144H381.491L387.878 879.639L381.491 891.134H368.721Z" stroke="#0095FF" stroke-width="0.51779"/>
<path d="M387.843 902.586L381.457 891.091L387.843 879.596H400.614L407 891.091L400.614 902.586H387.843Z" stroke="#0095FF" stroke-width="0.51779"/>
</g>
<g opacity="0.2">
<path d="M-9.248 3146.44L-15.6338 3134.95L-9.248 3123.45H3.52424L9.91002 3134.95L3.52424 3146.44H-9.248Z" stroke="#0095FF" stroke-width="0.51779"/>
<path d="M9.87474 3134.99L3.48828 3123.5L9.87474 3112H22.647L29.0328 3123.5L22.647 3134.99H9.87474Z" stroke="#0095FF" stroke-width="0.51779"/>
<path d="M28.9961 3146.44L22.6104 3134.95L28.9961 3123.45H41.7684L48.1548 3134.95L41.7684 3146.44H28.9961Z" stroke="#0095FF" stroke-width="0.51779"/>
<path d="M48.1189 3134.99L41.7324 3123.5L48.1189 3112H60.8911L67.2769 3123.5L60.8911 3134.99H48.1189Z" stroke="#0095FF" stroke-width="0.51779"/>
<path d="M67.5652 3146.44L61.1787 3134.95L67.5652 3123.45H80.3374L86.7232 3134.95L80.3374 3146.44H67.5652Z" stroke="#0095FF" stroke-width="0.51779"/>
<path d="M86.6872 3134.99L80.3008 3123.5L86.6872 3112H99.4595L105.845 3123.5L99.4595 3134.99H86.6872Z" stroke="#0095FF" stroke-width="0.51779"/>
<path d="M105.809 3146.44L99.4229 3134.95L105.809 3123.45H118.58L124.967 3134.95L118.58 3146.44H105.809Z" stroke="#0095FF" stroke-width="0.51779"/>
<path d="M124.932 3134.99L118.545 3123.5L124.932 3112H137.704L144.089 3123.5L137.704 3134.99H124.932Z" stroke="#0095FF" stroke-width="0.51779"/>
<path d="M144.053 3146.44L137.667 3134.95L144.053 3123.45H156.824L163.211 3134.95L156.824 3146.44H144.053Z" stroke="#0095FF" stroke-width="0.51779"/>
<path d="M163.176 3134.99L156.789 3123.5L163.176 3112H175.947L182.334 3123.5L175.947 3134.99H163.176Z" stroke="#0095FF" stroke-width="0.51779"/>
<path d="M182.297 3146.44L175.911 3134.95L182.297 3123.45H195.069L201.456 3134.95L195.069 3146.44H182.297Z" stroke="#0095FF" stroke-width="0.51779"/>
<path d="M201.42 3134.99L195.033 3123.5L201.42 3112H214.191L220.578 3123.5L214.191 3134.99H201.42Z" stroke="#0095FF" stroke-width="0.51779"/>
<path d="M220.54 3146.44L214.155 3134.95L220.54 3123.45H233.313L239.698 3134.95L233.313 3146.44H220.54Z" stroke="#0095FF" stroke-width="0.51779"/>
<path d="M239.664 3134.99L233.277 3123.5L239.664 3112H252.435L258.822 3123.5L252.435 3134.99H239.664Z" stroke="#0095FF" stroke-width="0.51779"/>
<path d="M258.786 3146.44L252.4 3134.95L258.786 3123.45H271.557L277.943 3134.95L271.557 3146.44H258.786Z" stroke="#0095FF" stroke-width="0.51779"/>
<path d="M277.909 3134.99L271.522 3123.5L277.909 3112H290.681L297.067 3123.5L290.681 3134.99H277.909Z" stroke="#0095FF" stroke-width="0.51779"/>
<path d="M297.031 3146.44L290.644 3134.95L297.031 3123.45H309.803L316.188 3134.95L309.803 3146.44H297.031Z" stroke="#0095FF" stroke-width="0.51779"/>
<path d="M316.152 3134.99L309.766 3123.5L316.152 3112H328.923L335.31 3123.5L328.923 3134.99H316.152Z" stroke="#0095FF" stroke-width="0.51779"/>
<path d="M335.598 3146.44L329.212 3134.95L335.598 3123.45H348.371L354.756 3134.95L348.371 3146.44H335.598Z" stroke="#0095FF" stroke-width="0.51779"/>
<path d="M354.721 3134.99L348.334 3123.5L354.721 3112H367.491L373.878 3123.5L367.491 3134.99H354.721Z" stroke="#0095FF" stroke-width="0.51779"/>
<path d="M373.843 3146.44L367.457 3134.95L373.843 3123.45H386.614L393 3134.95L386.614 3146.44H373.843Z" stroke="#0095FF" stroke-width="0.51779"/>
</g>
<g opacity="0.2">
<path d="M-9.248 3169.35L-15.6338 3157.85L-9.248 3146.36H3.52424L9.91002 3157.85L3.52424 3169.35H-9.248Z" stroke="#0095FF" stroke-width="0.51779"/>
<path d="M9.87474 3157.89L3.48828 3146.4L9.87474 3134.9H22.647L29.0328 3146.4L22.647 3157.89H9.87474Z" stroke="#0095FF" stroke-width="0.51779"/>
<path d="M28.9961 3169.35L22.6104 3157.85L28.9961 3146.36H41.7684L48.1548 3157.85L41.7684 3169.35H28.9961Z" stroke="#0095FF" stroke-width="0.51779"/>
<path d="M48.1189 3157.89L41.7324 3146.4L48.1189 3134.9H60.8911L67.2769 3146.4L60.8911 3157.89H48.1189Z" stroke="#0095FF" stroke-width="0.51779"/>
<path d="M67.5652 3169.35L61.1787 3157.85L67.5652 3146.36H80.3374L86.7232 3157.85L80.3374 3169.35H67.5652Z" stroke="#0095FF" stroke-width="0.51779"/>
<path d="M86.6872 3157.89L80.3008 3146.4L86.6872 3134.9H99.4595L105.845 3146.4L99.4595 3157.89H86.6872Z" stroke="#0095FF" stroke-width="0.51779"/>
<path d="M105.809 3169.35L99.4229 3157.85L105.809 3146.36H118.58L124.967 3157.85L118.58 3169.35H105.809Z" stroke="#0095FF" stroke-width="0.51779"/>
<path d="M124.932 3157.89L118.545 3146.4L124.932 3134.9H137.704L144.089 3146.4L137.704 3157.89H124.932Z" stroke="#0095FF" stroke-width="0.51779"/>
<path d="M144.053 3169.35L137.667 3157.85L144.053 3146.36H156.824L163.211 3157.85L156.824 3169.35H144.053Z" stroke="#0095FF" stroke-width="0.51779"/>
<path d="M163.176 3157.89L156.789 3146.4L163.176 3134.9H175.947L182.334 3146.4L175.947 3157.89H163.176Z" stroke="#0095FF" stroke-width="0.51779"/>
<path d="M182.297 3169.35L175.911 3157.85L182.297 3146.36H195.069L201.456 3157.85L195.069 3169.35H182.297Z" stroke="#0095FF" stroke-width="0.51779"/>
<path d="M201.42 3157.89L195.033 3146.4L201.42 3134.9H214.191L220.578 3146.4L214.191 3157.89H201.42Z" stroke="#0095FF" stroke-width="0.51779"/>
<path d="M220.54 3169.35L214.155 3157.85L220.54 3146.36H233.313L239.698 3157.85L233.313 3169.35H220.54Z" stroke="#0095FF" stroke-width="0.51779"/>
<path d="M239.664 3157.89L233.277 3146.4L239.664 3134.9H252.435L258.822 3146.4L252.435 3157.89H239.664Z" stroke="#0095FF" stroke-width="0.51779"/>
<path d="M258.786 3169.35L252.4 3157.85L258.786 3146.36H271.557L277.943 3157.85L271.557 3169.35H258.786Z" stroke="#0095FF" stroke-width="0.51779"/>
<path d="M277.909 3157.89L271.522 3146.4L277.909 3134.9H290.681L297.067 3146.4L290.681 3157.89H277.909Z" stroke="#0095FF" stroke-width="0.51779"/>
<path d="M297.031 3169.35L290.644 3157.85L297.031 3146.36H309.803L316.188 3157.85L309.803 3169.35H297.031Z" stroke="#0095FF" stroke-width="0.51779"/>
<path d="M316.152 3157.89L309.766 3146.4L316.152 3134.9H328.923L335.31 3146.4L328.923 3157.89H316.152Z" stroke="#0095FF" stroke-width="0.51779"/>
<path d="M335.598 3169.35L329.212 3157.85L335.598 3146.36H348.371L354.756 3157.85L348.371 3169.35H335.598Z" stroke="#0095FF" stroke-width="0.51779"/>
<path d="M354.721 3157.89L348.334 3146.4L354.721 3134.9H367.491L373.878 3146.4L367.491 3157.89H354.721Z" stroke="#0095FF" stroke-width="0.51779"/>
<path d="M373.843 3169.35L367.457 3157.85L373.843 3146.36H386.614L393 3157.85L386.614 3169.35H373.843Z" stroke="#0095FF" stroke-width="0.51779"/>
</g>
<g opacity="0.2">
<path d="M-9.248 3192.59L-15.6338 3181.09L-9.248 3169.6H3.52424L9.91002 3181.09L3.52424 3192.59H-9.248Z" stroke="#0095FF" stroke-width="0.51779"/>
<path d="M9.87474 3181.13L3.48828 3169.64L9.87474 3158.14H22.647L29.0328 3169.64L22.647 3181.13H9.87474Z" stroke="#0095FF" stroke-width="0.51779"/>
<path d="M28.9961 3192.59L22.6104 3181.09L28.9961 3169.6H41.7684L48.1548 3181.09L41.7684 3192.59H28.9961Z" stroke="#0095FF" stroke-width="0.51779"/>
<path d="M48.1189 3181.13L41.7324 3169.64L48.1189 3158.14H60.8911L67.2769 3169.64L60.8911 3181.13H48.1189Z" stroke="#0095FF" stroke-width="0.51779"/>
<path d="M67.5652 3192.59L61.1787 3181.09L67.5652 3169.6H80.3374L86.7232 3181.09L80.3374 3192.59H67.5652Z" stroke="#0095FF" stroke-width="0.51779"/>
<path d="M86.6872 3181.13L80.3008 3169.64L86.6872 3158.14H99.4595L105.845 3169.64L99.4595 3181.13H86.6872Z" stroke="#0095FF" stroke-width="0.51779"/>
<path d="M105.809 3192.59L99.4229 3181.09L105.809 3169.6H118.58L124.967 3181.09L118.58 3192.59H105.809Z" stroke="#0095FF" stroke-width="0.51779"/>
<path d="M124.932 3181.13L118.545 3169.64L124.932 3158.14H137.704L144.089 3169.64L137.704 3181.13H124.932Z" stroke="#0095FF" stroke-width="0.51779"/>
<path d="M144.053 3192.59L137.667 3181.09L144.053 3169.6H156.824L163.211 3181.09L156.824 3192.59H144.053Z" stroke="#0095FF" stroke-width="0.51779"/>
<path d="M163.176 3181.13L156.789 3169.64L163.176 3158.14H175.947L182.334 3169.64L175.947 3181.13H163.176Z" stroke="#0095FF" stroke-width="0.51779"/>
<path d="M182.297 3192.59L175.911 3181.09L182.297 3169.6H195.069L201.456 3181.09L195.069 3192.59H182.297Z" stroke="#0095FF" stroke-width="0.51779"/>
<path d="M201.42 3181.13L195.033 3169.64L201.42 3158.14H214.191L220.578 3169.64L214.191 3181.13H201.42Z" stroke="#0095FF" stroke-width="0.51779"/>
<path d="M220.54 3192.59L214.155 3181.09L220.54 3169.6H233.313L239.698 3181.09L233.313 3192.59H220.54Z" stroke="#0095FF" stroke-width="0.51779"/>
<path d="M239.664 3181.13L233.277 3169.64L239.664 3158.14H252.435L258.822 3169.64L252.435 3181.13H239.664Z" stroke="#0095FF" stroke-width="0.51779"/>
<path d="M258.786 3192.59L252.4 3181.09L258.786 3169.6H271.557L277.943 3181.09L271.557 3192.59H258.786Z" stroke="#0095FF" stroke-width="0.51779"/>
<path d="M277.909 3181.13L271.522 3169.64L277.909 3158.14H290.681L297.067 3169.64L290.681 3181.13H277.909Z" stroke="#0095FF" stroke-width="0.51779"/>
<path d="M297.031 3192.59L290.644 3181.09L297.031 3169.6H309.803L316.188 3181.09L309.803 3192.59H297.031Z" stroke="#0095FF" stroke-width="0.51779"/>
<path d="M316.152 3181.13L309.766 3169.64L316.152 3158.14H328.923L335.31 3169.64L328.923 3181.13H316.152Z" stroke="#0095FF" stroke-width="0.51779"/>
<path d="M335.598 3192.59L329.212 3181.09L335.598 3169.6H348.371L354.756 3181.09L348.371 3192.59H335.598Z" stroke="#0095FF" stroke-width="0.51779"/>
<path d="M354.721 3181.13L348.334 3169.64L354.721 3158.14H367.491L373.878 3169.64L367.491 3181.13H354.721Z" stroke="#0095FF" stroke-width="0.51779"/>
<path d="M373.843 3192.59L367.457 3181.09L373.843 3169.6H386.614L393 3181.09L386.614 3192.59H373.843Z" stroke="#0095FF" stroke-width="0.51779"/>
</g>
<g filter="url(#filter6_f_248_5885)">
<path d="M142 3374C142 3502.13 38.8016 3606 -88.5 3606C-215.802 3606 -319 3502.13 -319 3374C-319 3245.87 -215.802 3142 -88.5 3142C38.8016 3142 142 3245.87 142 3374Z" fill="#54C5AD" fill-opacity="0.95"/>
</g>
<g filter="url(#filter7_f_248_5885)">
<ellipse cx="430" cy="4769.5" rx="217" ry="218.5" fill="#52A7C6"/>
</g>
<g opacity="0.2">
<path d="M-9.36941 12264L-15.7559 12252.5L-9.36941 12241H3.40284L9.78862 12252.5L3.40284 12264H-9.36941Z" stroke="#0095FF" stroke-width="0.51779"/>
<path d="M9.752 12275.4L3.36621 12263.9L9.752 12252.5H22.5242L28.91 12263.9L22.5242 12275.4H9.752Z" stroke="#0095FF" stroke-width="0.51779"/>
<path d="M28.8747 12264L22.4883 12252.5L28.8747 12241H41.647L48.0328 12252.5L41.647 12264H28.8747Z" stroke="#0095FF" stroke-width="0.51779"/>
<path d="M47.9961 12275.4L41.6104 12263.9L47.9961 12252.5H60.7684L67.1548 12263.9L60.7684 12275.4H47.9961Z" stroke="#0095FF" stroke-width="0.51779"/>
<path d="M67.1189 12264L60.7324 12252.5L67.1189 12241H79.8911L86.2769 12252.5L79.8911 12264H67.1189Z" stroke="#0095FF" stroke-width="0.51779"/>
<path d="M86.5652 12275.4L80.1787 12263.9L86.5652 12252.5H99.3374L105.723 12263.9L99.3374 12275.4H86.5652Z" stroke="#0095FF" stroke-width="0.51779"/>
<path d="M105.687 12264L99.3008 12252.5L105.687 12241H118.459L124.845 12252.5L118.459 12264H105.687Z" stroke="#0095FF" stroke-width="0.51779"/>
<path d="M124.809 12275.4L118.423 12263.9L124.809 12252.5H137.58L143.967 12263.9L137.58 12275.4H124.809Z" stroke="#0095FF" stroke-width="0.51779"/>
<path d="M143.932 12264L137.545 12252.5L143.932 12241H156.704L163.089 12252.5L156.704 12264H143.932Z" stroke="#0095FF" stroke-width="0.51779"/>
<path d="M163.053 12275.4L156.667 12263.9L163.053 12252.5H175.824L182.211 12263.9L175.824 12275.4H163.053Z" stroke="#0095FF" stroke-width="0.51779"/>
<path d="M182.176 12264L175.789 12252.5L182.176 12241H194.947L201.334 12252.5L194.947 12264H182.176Z" stroke="#0095FF" stroke-width="0.51779"/>
<path d="M201.297 12275.4L194.911 12263.9L201.297 12252.5H214.069L220.456 12263.9L214.069 12275.4H201.297Z" stroke="#0095FF" stroke-width="0.51779"/>
<path d="M220.42 12264L214.033 12252.5L220.42 12241H233.191L239.578 12252.5L233.191 12264H220.42Z" stroke="#0095FF" stroke-width="0.51779"/>
<path d="M239.54 12275.4L233.155 12263.9L239.54 12252.5H252.313L258.698 12263.9L252.313 12275.4H239.54Z" stroke="#0095FF" stroke-width="0.51779"/>
<path d="M258.664 12264L252.277 12252.5L258.664 12241H271.435L277.822 12252.5L271.435 12264H258.664Z" stroke="#0095FF" stroke-width="0.51779"/>
<path d="M277.786 12275.4L271.4 12263.9L277.786 12252.5H290.557L296.943 12263.9L290.557 12275.4H277.786Z" stroke="#0095FF" stroke-width="0.51779"/>
<path d="M296.909 12264L290.522 12252.5L296.909 12241H309.681L316.067 12252.5L309.681 12264H296.909Z" stroke="#0095FF" stroke-width="0.51779"/>
<path d="M316.031 12275.4L309.644 12263.9L316.031 12252.5H328.803L335.188 12263.9L328.803 12275.4H316.031Z" stroke="#0095FF" stroke-width="0.51779"/>
<path d="M335.152 12264L328.766 12252.5L335.152 12241H347.923L354.31 12252.5L347.923 12264H335.152Z" stroke="#0095FF" stroke-width="0.51779"/>
<path d="M354.598 12275.4L348.212 12263.9L354.598 12252.5H367.371L373.756 12263.9L367.371 12275.4H354.598Z" stroke="#0095FF" stroke-width="0.51779"/>
<path d="M373.721 12264L367.334 12252.5L373.721 12241H386.491L392.878 12252.5L386.491 12264H373.721Z" stroke="#0095FF" stroke-width="0.51779"/>
<path d="M392.843 12275.4L386.457 12263.9L392.843 12252.5H405.614L412 12263.9L405.614 12275.4H392.843Z" stroke="#0095FF" stroke-width="0.51779"/>
</g>
<g opacity="0.2">
<path d="M-9.36941 12286.9L-15.7559 12275.4L-9.36941 12263.9H3.40284L9.78862 12275.4L3.40284 12286.9H-9.36941Z" stroke="#0095FF" stroke-width="0.51779"/>
<path d="M9.752 12298.3L3.36621 12286.9L9.752 12275.4H22.5242L28.91 12286.9L22.5242 12298.3H9.752Z" stroke="#0095FF" stroke-width="0.51779"/>
<path d="M28.8747 12286.9L22.4883 12275.4L28.8747 12263.9H41.647L48.0328 12275.4L41.647 12286.9H28.8747Z" stroke="#0095FF" stroke-width="0.51779"/>
<path d="M47.9961 12298.3L41.6104 12286.9L47.9961 12275.4H60.7684L67.1548 12286.9L60.7684 12298.3H47.9961Z" stroke="#0095FF" stroke-width="0.51779"/>
<path d="M67.1189 12286.9L60.7324 12275.4L67.1189 12263.9H79.8911L86.2769 12275.4L79.8911 12286.9H67.1189Z" stroke="#0095FF" stroke-width="0.51779"/>
<path d="M86.5652 12298.3L80.1787 12286.9L86.5652 12275.4H99.3374L105.723 12286.9L99.3374 12298.3H86.5652Z" stroke="#0095FF" stroke-width="0.51779"/>
<path d="M105.687 12286.9L99.3008 12275.4L105.687 12263.9H118.459L124.845 12275.4L118.459 12286.9H105.687Z" stroke="#0095FF" stroke-width="0.51779"/>
<path d="M124.809 12298.3L118.423 12286.9L124.809 12275.4H137.58L143.967 12286.9L137.58 12298.3H124.809Z" stroke="#0095FF" stroke-width="0.51779"/>
<path d="M143.932 12286.9L137.545 12275.4L143.932 12263.9H156.704L163.089 12275.4L156.704 12286.9H143.932Z" stroke="#0095FF" stroke-width="0.51779"/>
<path d="M163.053 12298.3L156.667 12286.9L163.053 12275.4H175.824L182.211 12286.9L175.824 12298.3H163.053Z" stroke="#0095FF" stroke-width="0.51779"/>
<path d="M182.176 12286.9L175.789 12275.4L182.176 12263.9H194.947L201.334 12275.4L194.947 12286.9H182.176Z" stroke="#0095FF" stroke-width="0.51779"/>
<path d="M201.297 12298.3L194.911 12286.9L201.297 12275.4H214.069L220.456 12286.9L214.069 12298.3H201.297Z" stroke="#0095FF" stroke-width="0.51779"/>
<path d="M220.42 12286.9L214.033 12275.4L220.42 12263.9H233.191L239.578 12275.4L233.191 12286.9H220.42Z" stroke="#0095FF" stroke-width="0.51779"/>
<path d="M239.54 12298.3L233.155 12286.9L239.54 12275.4H252.313L258.698 12286.9L252.313 12298.3H239.54Z" stroke="#0095FF" stroke-width="0.51779"/>
<path d="M258.664 12286.9L252.277 12275.4L258.664 12263.9H271.435L277.822 12275.4L271.435 12286.9H258.664Z" stroke="#0095FF" stroke-width="0.51779"/>
<path d="M277.786 12298.3L271.4 12286.9L277.786 12275.4H290.557L296.943 12286.9L290.557 12298.3H277.786Z" stroke="#0095FF" stroke-width="0.51779"/>
<path d="M296.909 12286.9L290.522 12275.4L296.909 12263.9H309.681L316.067 12275.4L309.681 12286.9H296.909Z" stroke="#0095FF" stroke-width="0.51779"/>
<path d="M316.031 12298.3L309.644 12286.9L316.031 12275.4H328.803L335.188 12286.9L328.803 12298.3H316.031Z" stroke="#0095FF" stroke-width="0.51779"/>
<path d="M335.152 12286.9L328.766 12275.4L335.152 12263.9H347.923L354.31 12275.4L347.923 12286.9H335.152Z" stroke="#0095FF" stroke-width="0.51779"/>
<path d="M354.598 12298.3L348.212 12286.9L354.598 12275.4H367.371L373.756 12286.9L367.371 12298.3H354.598Z" stroke="#0095FF" stroke-width="0.51779"/>
<path d="M373.721 12286.9L367.334 12275.4L373.721 12263.9H386.491L392.878 12275.4L386.491 12286.9H373.721Z" stroke="#0095FF" stroke-width="0.51779"/>
<path d="M392.843 12298.3L386.457 12286.9L392.843 12275.4H405.614L412 12286.9L405.614 12298.3H392.843Z" stroke="#0095FF" stroke-width="0.51779"/>
</g>
<g opacity="0.2">
<path d="M-9.36941 12310.1L-15.7559 12298.6L-9.36941 12287.1H3.40284L9.78862 12298.6L3.40284 12310.1H-9.36941Z" stroke="#0095FF" stroke-width="0.51779"/>
<path d="M9.752 12321.6L3.36621 12310.1L9.752 12298.6H22.5242L28.91 12310.1L22.5242 12321.6H9.752Z" stroke="#0095FF" stroke-width="0.51779"/>
<path d="M28.8747 12310.1L22.4883 12298.6L28.8747 12287.1H41.647L48.0328 12298.6L41.647 12310.1H28.8747Z" stroke="#0095FF" stroke-width="0.51779"/>
<path d="M47.9961 12321.6L41.6104 12310.1L47.9961 12298.6H60.7684L67.1548 12310.1L60.7684 12321.6H47.9961Z" stroke="#0095FF" stroke-width="0.51779"/>
<path d="M67.1189 12310.1L60.7324 12298.6L67.1189 12287.1H79.8911L86.2769 12298.6L79.8911 12310.1H67.1189Z" stroke="#0095FF" stroke-width="0.51779"/>
<path d="M86.5652 12321.6L80.1787 12310.1L86.5652 12298.6H99.3374L105.723 12310.1L99.3374 12321.6H86.5652Z" stroke="#0095FF" stroke-width="0.51779"/>
<path d="M105.687 12310.1L99.3008 12298.6L105.687 12287.1H118.459L124.845 12298.6L118.459 12310.1H105.687Z" stroke="#0095FF" stroke-width="0.51779"/>
<path d="M124.809 12321.6L118.423 12310.1L124.809 12298.6H137.58L143.967 12310.1L137.58 12321.6H124.809Z" stroke="#0095FF" stroke-width="0.51779"/>
<path d="M143.932 12310.1L137.545 12298.6L143.932 12287.1H156.704L163.089 12298.6L156.704 12310.1H143.932Z" stroke="#0095FF" stroke-width="0.51779"/>
<path d="M163.053 12321.6L156.667 12310.1L163.053 12298.6H175.824L182.211 12310.1L175.824 12321.6H163.053Z" stroke="#0095FF" stroke-width="0.51779"/>
<path d="M182.176 12310.1L175.789 12298.6L182.176 12287.1H194.947L201.334 12298.6L194.947 12310.1H182.176Z" stroke="#0095FF" stroke-width="0.51779"/>
<path d="M201.297 12321.6L194.911 12310.1L201.297 12298.6H214.069L220.456 12310.1L214.069 12321.6H201.297Z" stroke="#0095FF" stroke-width="0.51779"/>
<path d="M220.42 12310.1L214.033 12298.6L220.42 12287.1H233.191L239.578 12298.6L233.191 12310.1H220.42Z" stroke="#0095FF" stroke-width="0.51779"/>
<path d="M239.54 12321.6L233.155 12310.1L239.54 12298.6H252.313L258.698 12310.1L252.313 12321.6H239.54Z" stroke="#0095FF" stroke-width="0.51779"/>
<path d="M258.664 12310.1L252.277 12298.6L258.664 12287.1H271.435L277.822 12298.6L271.435 12310.1H258.664Z" stroke="#0095FF" stroke-width="0.51779"/>
<path d="M277.786 12321.6L271.4 12310.1L277.786 12298.6H290.557L296.943 12310.1L290.557 12321.6H277.786Z" stroke="#0095FF" stroke-width="0.51779"/>
<path d="M296.909 12310.1L290.522 12298.6L296.909 12287.1H309.681L316.067 12298.6L309.681 12310.1H296.909Z" stroke="#0095FF" stroke-width="0.51779"/>
<path d="M316.031 12321.6L309.644 12310.1L316.031 12298.6H328.803L335.188 12310.1L328.803 12321.6H316.031Z" stroke="#0095FF" stroke-width="0.51779"/>
<path d="M335.152 12310.1L328.766 12298.6L335.152 12287.1H347.923L354.31 12298.6L347.923 12310.1H335.152Z" stroke="#0095FF" stroke-width="0.51779"/>
<path d="M354.598 12321.6L348.212 12310.1L354.598 12298.6H367.371L373.756 12310.1L367.371 12321.6H354.598Z" stroke="#0095FF" stroke-width="0.51779"/>
<path d="M373.721 12310.1L367.334 12298.6L373.721 12287.1H386.491L392.878 12298.6L386.491 12310.1H373.721Z" stroke="#0095FF" stroke-width="0.51779"/>
<path d="M392.843 12321.6L386.457 12310.1L392.843 12298.6H405.614L412 12310.1L405.614 12321.6H392.843Z" stroke="#0095FF" stroke-width="0.51779"/>
</g>
<g filter="url(#filter8_f_248_5885)">
<path d="M741 5685C741 5813.13 637.802 5917 510.5 5917C383.198 5917 280 5813.13 280 5685C280 5556.87 383.198 5453 510.5 5453C637.802 5453 741 5556.87 741 5685Z" fill="#54C5AD" fill-opacity="0.95"/>
</g>
<path d="M296.452 253.979C296.72 255.149 296.954 256.319 297.155 257.489C297.256 258.058 297.356 258.659 297.457 259.259C297.49 259.449 297.658 260.334 297.524 259.639C297.591 259.986 297.624 260.334 297.658 260.65C297.959 263.053 298.194 265.488 298.328 267.922C298.596 272.823 298.562 277.755 298.194 282.624C298.093 283.825 297.993 285.027 297.892 286.26C297.825 286.797 297.792 287.366 297.725 287.904C297.691 288.157 297.658 288.41 297.624 288.694C297.624 288.821 297.591 288.947 297.591 289.042C297.557 289.232 297.591 289.137 297.624 288.757C297.624 288.852 297.591 288.947 297.591 289.042C297.289 291.065 296.82 293.057 296.25 295.017C295.949 295.998 295.614 296.978 295.245 297.926C295.044 298.4 294.877 298.875 294.676 299.349C294.642 299.475 294.575 299.57 294.542 299.697C294.743 299.096 294.642 299.444 294.575 299.602C294.441 299.855 294.341 300.139 294.207 300.392C293.302 302.258 292.263 304.028 291.023 305.735C290.688 306.21 290.32 306.684 289.951 307.127C289.851 307.253 289.65 307.411 290.052 307C289.951 307.127 289.817 307.253 289.717 307.38C289.516 307.601 289.348 307.822 289.147 308.043C288.376 308.897 287.572 309.688 286.701 310.478C286.266 310.857 285.83 311.237 285.361 311.616C285.126 311.806 284.858 311.964 284.657 312.154C285.093 311.743 284.925 311.964 284.758 312.09C284.624 312.185 284.49 312.28 284.322 312.375C283.35 313.039 282.312 313.671 281.24 314.209C280.301 314.683 279.765 315.916 280.1 316.896C280.234 317.275 280.435 317.655 280.737 317.939C281.106 318.319 281.943 318.698 282.513 318.635C284.758 318.382 287.003 318.256 289.248 318.319C290.353 318.35 291.426 318.414 292.531 318.508C292.799 318.54 293.101 318.572 293.369 318.603C293.57 318.635 294.575 318.761 293.704 318.635C294.274 318.73 294.843 318.793 295.413 318.888C297.591 319.236 299.769 319.742 301.88 320.374C302.952 320.69 304.024 321.038 305.063 321.449C305.297 321.544 305.498 321.607 305.733 321.702C305.867 321.765 306.001 321.797 306.135 321.86C305.431 321.607 305.9 321.765 306.068 321.828C306.604 322.05 307.107 322.271 307.643 322.492C309.687 323.409 311.664 324.421 313.54 325.559C314.478 326.128 315.383 326.697 316.254 327.33C316.489 327.488 316.723 327.646 316.957 327.804C317.058 327.899 317.192 327.962 317.293 328.057C316.756 327.677 316.991 327.835 317.125 327.93C317.628 328.31 318.097 328.657 318.566 329.037C320.241 330.365 321.849 331.819 323.324 333.337C324.094 334.127 324.832 334.949 325.569 335.803C325.703 335.992 325.87 336.15 326.004 336.34C325.468 335.739 326.105 336.467 326.205 336.625C326.54 337.067 326.875 337.51 327.211 337.953C328.618 339.881 329.891 341.905 330.963 343.991C331.231 344.529 331.499 345.066 331.734 345.572C331.935 346.015 331.499 345.035 331.7 345.509C331.767 345.667 331.834 345.857 331.901 346.015C332.002 346.268 332.102 346.521 332.203 346.774C332.672 347.912 333.074 349.082 333.409 350.251C333.778 351.453 335.219 352.306 336.492 351.895C337.095 351.706 337.698 351.358 338 350.821C338.335 350.22 338.368 349.651 338.268 348.987C338.268 348.955 338.167 348.354 338.234 348.734C338.301 349.113 338.201 348.544 338.201 348.513C338.167 348.291 338.134 348.07 338.1 347.849C338.033 347.343 337.966 346.837 337.933 346.331C337.866 345.541 337.799 344.75 337.765 343.96C337.732 342.727 337.765 341.462 337.732 340.229C337.732 338.68 337.631 337.162 337.464 335.613C337.33 334.443 337.162 333.273 336.994 332.104C336.894 331.408 336.793 330.712 336.693 329.985C336.659 329.859 336.659 329.732 336.626 329.606C336.525 329.005 336.693 329.985 336.626 329.606C336.592 329.258 336.525 328.942 336.492 328.594C336.19 326.349 335.922 324.073 335.855 321.797C335.822 320.627 335.822 319.489 335.922 318.319C335.956 317.781 335.989 317.212 336.09 316.675C335.956 317.339 336.157 316.359 336.157 316.232C336.224 315.916 336.257 315.631 336.324 315.315C336.525 314.335 336.827 313.387 337.162 312.47C337.296 312.059 337.464 311.648 337.631 311.237C337.698 311.047 337.765 310.857 337.866 310.699C337.899 310.573 337.966 310.478 338 310.351C338.234 309.846 337.899 310.604 338 310.383C338.804 308.707 339.708 307.095 340.781 305.577C341.082 305.166 341.518 304.724 341.786 304.281C341.752 304.313 341.417 304.724 341.685 304.408C341.786 304.281 341.886 304.186 341.987 304.06C342.154 303.87 342.322 303.68 342.49 303.491C343.193 302.732 343.93 302.005 344.735 301.309C345.137 300.961 345.572 300.614 346.008 300.266C346.343 300.013 345.907 300.361 345.874 300.361C346.008 300.297 346.108 300.171 346.242 300.108C346.477 299.95 346.711 299.792 346.912 299.633C347.817 299.033 348.755 298.527 349.761 298.053C350.699 297.61 351.235 296.314 350.9 295.365C350.531 294.322 349.626 293.69 348.487 293.626C347.314 293.563 346.142 293.468 344.969 293.342C344.701 293.31 344.433 293.279 344.165 293.247C344.031 293.247 343.897 293.184 343.763 293.184C344.433 293.152 343.997 293.215 343.796 293.184C343.193 293.089 342.59 293.026 342.02 292.931C339.742 292.551 337.497 292.077 335.319 291.476C334.213 291.16 333.141 290.844 332.069 290.465C331.566 290.275 331.064 290.117 330.528 289.927C330.461 289.896 329.757 289.643 329.757 289.643C329.858 289.674 329.958 289.738 330.059 289.769C329.958 289.738 329.858 289.674 329.757 289.643C329.623 289.579 329.456 289.516 329.322 289.453C327.211 288.568 325.2 287.556 323.257 286.386C322.285 285.785 321.313 285.185 320.409 284.521C320.308 284.458 320.241 284.394 320.141 284.331C320.71 284.711 320.241 284.426 320.141 284.331C319.94 284.173 319.705 284.015 319.504 283.857C319.035 283.509 318.599 283.13 318.164 282.75C317.326 282.023 316.488 281.264 315.718 280.474C314.914 279.652 314.21 278.767 313.439 277.945C313.908 278.45 313.339 277.818 313.238 277.66C313.071 277.439 312.903 277.249 312.736 277.028C312.367 276.553 312.032 276.079 311.697 275.605C311.027 274.656 310.424 273.676 309.821 272.696C308.648 270.736 307.609 268.713 306.638 266.626C306.604 266.531 306.537 266.436 306.504 266.341C306.47 266.246 306.403 266.152 306.37 266.057C306.504 266.373 306.537 266.405 306.436 266.183C306.302 265.899 306.168 265.583 306.034 265.298C305.8 264.729 305.565 264.16 305.331 263.591C304.862 262.421 304.393 261.219 303.957 260.05C303.052 257.615 302.215 255.181 301.377 252.746C300.975 251.576 299.601 250.691 298.294 251.102C296.954 251.45 296.016 252.715 296.452 253.979C299.467 262.864 302.617 272.032 308.48 279.652C311.462 283.541 315.048 286.892 319.27 289.643C323.257 292.235 327.713 294.195 332.304 295.618C337.531 297.231 342.992 298.116 348.487 298.4C348.052 296.914 347.65 295.46 347.214 293.974C339.608 297.547 334.314 304.661 332.002 312.28C330.595 316.928 330.662 321.765 331.231 326.507C331.399 327.835 331.566 329.132 331.767 330.46C331.801 330.776 331.868 331.06 331.901 331.376C331.935 331.503 331.935 331.629 331.969 331.756C332.069 332.357 331.901 331.376 331.969 331.787C332.069 332.388 332.136 333.02 332.236 333.621C332.471 335.487 332.706 337.352 332.739 339.217C332.773 340.64 332.739 342.063 332.773 343.486C332.84 345.73 333.108 347.975 333.443 350.22C335.051 349.809 336.659 349.366 338.301 348.955C335.721 340.355 330.36 332.578 323.324 326.666C316.287 320.722 307.576 316.39 298.328 314.588C293.168 313.576 287.807 313.26 282.58 313.893C283.015 315.378 283.417 316.833 283.853 318.319C292.096 314.051 297.658 306.368 300.573 298.084C302.081 293.784 302.751 289.327 303.119 284.805C303.555 279.81 303.689 274.815 303.488 269.819C303.253 264.097 302.617 258.374 301.377 252.778C301.109 251.576 299.534 250.754 298.294 251.134C296.854 251.482 296.184 252.683 296.452 253.979Z" fill="url(#paint0_linear_248_5885)"/>
<g opacity="0.5" filter="url(#filter9_f_248_5885)">
<path d="M604 10378C604 10506.1 500.802 10610 373.5 10610C246.198 10610 143 10506.1 143 10378C143 10249.9 246.198 10146 373.5 10146C500.802 10146 604 10249.9 604 10378Z" fill="#54C5AD" fill-opacity="0.95"/>
</g>
</g>
<defs>
<filter id="filter0_f_248_5885" x="-676" y="-609" width="1284" height="1243" filterUnits="userSpaceOnUse" color-interpolation-filters="sRGB">
<feFlood flood-opacity="0" result="BackgroundImageFix"/>
<feBlend mode="normal" in="SourceGraphic" in2="BackgroundImageFix" result="shape"/>
<feGaussianBlur stdDeviation="217" result="effect1_foregroundBlur_248_5885"/>
</filter>
<filter id="filter1_f_248_5885" x="-271" y="-109" width="1206" height="1208" filterUnits="userSpaceOnUse" color-interpolation-filters="sRGB">
<feFlood flood-opacity="0" result="BackgroundImageFix"/>
<feBlend mode="normal" in="SourceGraphic" in2="BackgroundImageFix" result="shape"/>
<feGaussianBlur stdDeviation="217" result="effect1_foregroundBlur_248_5885"/>
</filter>
<filter id="filter2_bddiiiiii_248_5885" x="265.473" y="23.8854" width="233.054" height="235.937" filterUnits="userSpaceOnUse" color-interpolation-filters="sRGB">
<feFlood flood-opacity="0" result="BackgroundImageFix"/>
<feGaussianBlur in="BackgroundImageFix" stdDeviation="33.2635"/>
<feComposite in2="SourceAlpha" operator="in" result="effect1_backgroundBlur_248_5885"/>
<feColorMatrix in="SourceAlpha" type="matrix" values="0 0 0 0 0 0 0 0 0 0 0 0 0 0 0 0 0 0 127 0" result="hardAlpha"/>
<feMorphology radius="9.59679" operator="dilate" in="SourceAlpha" result="effect2_dropShadow_248_5885"/>
<feOffset dy="1.91936"/>
<feGaussianBlur stdDeviation="11.996"/>
<feComposite in2="hardAlpha" operator="out"/>
<feColorMatrix type="matrix" values="0 0 0 0 1 0 0 0 0 1 0 0 0 0 1 0 0 0 0.12 0"/>
<feBlend mode="normal" in2="effect1_backgroundBlur_248_5885" result="effect2_dropShadow_248_5885"/>
<feColorMatrix in="SourceAlpha" type="matrix" values="0 0 0 0 0 0 0 0 0 0 0 0 0 0 0 0 0 0 127 0" result="hardAlpha"/>
<feMorphology radius="9.59679" operator="dilate" in="SourceAlpha" result="effect3_dropShadow_248_5885"/>
<feOffset dy="1.91936"/>
<feGaussianBlur stdDeviation="19.1936"/>
<feComposite in2="hardAlpha" operator="out"/>
<feColorMatrix type="matrix" values="0 0 0 0 1 0 0 0 0 1 0 0 0 0 1 0 0 0 0.28 0"/>
<feBlend mode="normal" in2="effect2_dropShadow_248_5885" result="effect3_dropShadow_248_5885"/>
<feBlend mode="normal" in="SourceGraphic" in2="effect3_dropShadow_248_5885" result="shape"/>
<feColorMatrix in="SourceAlpha" type="matrix" values="0 0 0 0 0 0 0 0 0 0 0 0 0 0 0 0 0 0 127 0" result="hardAlpha"/>
<feOffset dy="0.665269"/>
<feGaussianBlur stdDeviation="13.3054"/>
<feComposite in2="hardAlpha" operator="arithmetic" k2="-1" k3="1"/>
<feColorMatrix type="matrix" values="0 0 0 0 0.193611 0 0 0 0 0.247279 0 0 0 0 0.683333 0 0 0 1 0"/>
<feBlend mode="normal" in2="shape" result="effect4_innerShadow_248_5885"/>
<feColorMatrix in="SourceAlpha" type="matrix" values="0 0 0 0 0 0 0 0 0 0 0 0 0 0 0 0 0 0 127 0" result="hardAlpha"/>
<feOffset dy="2.66108"/>
<feGaussianBlur stdDeviation="5.98742"/>
<feComposite in2="hardAlpha" operator="arithmetic" k2="-1" k3="1"/>
<feColorMatrix type="matrix" values="0 0 0 0 0.193611 0 0 0 0 0.247279 0 0 0 0 0.683333 0 0 0 1 0"/>
<feBlend mode="normal" in2="effect4_innerShadow_248_5885" result="effect5_innerShadow_248_5885"/>
<feColorMatrix in="SourceAlpha" type="matrix" values="0 0 0 0 0 0 0 0 0 0 0 0 0 0 0 0 0 0 127 0" result="hardAlpha"/>
<feMorphology radius="31.9329" operator="dilate" in="SourceAlpha" result="effect6_innerShadow_248_5885"/>
<feOffset dy="65.1964"/>
<feGaussianBlur stdDeviation="33.2635"/>
<feComposite in2="hardAlpha" operator="arithmetic" k2="-1" k3="1"/>
<feColorMatrix type="matrix" values="0 0 0 0 0.193611 0 0 0 0 0.247279 0 0 0 0 0.683333 0 0 0 1 0"/>
<feBlend mode="normal" in2="effect5_innerShadow_248_5885" result="effect6_innerShadow_248_5885"/>
<feColorMatrix in="SourceAlpha" type="matrix" values="0 0 0 0 0 0 0 0 0 0 0 0 0 0 0 0 0 0 127 0" result="hardAlpha"/>
<feMorphology radius="22.7576" operator="dilate" in="SourceAlpha" result="effect7_innerShadow_248_5885"/>
<feOffset dy="-54.5521"/>
<feGaussianBlur stdDeviation="39.6474"/>
<feComposite in2="hardAlpha" operator="arithmetic" k2="-1" k3="1"/>
<feColorMatrix type="matrix" values="0 0 0 0 1 0 0 0 0 1 0 0 0 0 1 0 0 0 1 0"/>
<feBlend mode="normal" in2="effect6_innerShadow_248_5885" result="effect7_innerShadow_248_5885"/>
<feColorMatrix in="SourceAlpha" type="matrix" values="0 0 0 0 0 0 0 0 0 0 0 0 0 0 0 0 0 0 127 0" result="hardAlpha"/>
<feMorphology radius="2.66108" operator="dilate" in="SourceAlpha" result="effect8_innerShadow_248_5885"/>
<feOffset dy="4.65688"/>
<feGaussianBlur stdDeviation="3.65898"/>
<feComposite in2="hardAlpha" operator="arithmetic" k2="-1" k3="1"/>
<feColorMatrix type="matrix" values="0 0 0 0 1 0 0 0 0 1 0 0 0 0 1 0 0 0 0.98 0"/>
<feBlend mode="normal" in2="effect7_innerShadow_248_5885" result="effect8_innerShadow_248_5885"/>
<feColorMatrix in="SourceAlpha" type="matrix" values="0 0 0 0 0 0 0 0 0 0 0 0 0 0 0 0 0 0 127 0" result="hardAlpha"/>
<feMorphology radius="23.9497" operator="dilate" in="SourceAlpha" result="effect9_innerShadow_248_5885"/>
<feOffset dy="25.9455"/>
<feGaussianBlur stdDeviation="18.6275"/>
<feComposite in2="hardAlpha" operator="arithmetic" k2="-1" k3="1"/>
<feColorMatrix type="matrix" values="0 0 0 0 1 0 0 0 0 1 0 0 0 0 1 0 0 0 1 0"/>
<feBlend mode="normal" in2="effect8_innerShadow_248_5885" result="effect9_innerShadow_248_5885"/>
</filter>
<filter id="filter3_bddiiiiii_248_5885" x="-114.527" y="2385" width="233.054" height="235.937" filterUnits="userSpaceOnUse" color-interpolation-filters="sRGB">
<feFlood flood-opacity="0" result="BackgroundImageFix"/>
<feGaussianBlur in="BackgroundImageFix" stdDeviation="33.2635"/>
<feComposite in2="SourceAlpha" operator="in" result="effect1_backgroundBlur_248_5885"/>
<feColorMatrix in="SourceAlpha" type="matrix" values="0 0 0 0 0 0 0 0 0 0 0 0 0 0 0 0 0 0 127 0" result="hardAlpha"/>
<feMorphology radius="9.59679" operator="dilate" in="SourceAlpha" result="effect2_dropShadow_248_5885"/>
<feOffset dy="1.91936"/>
<feGaussianBlur stdDeviation="11.996"/>
<feComposite in2="hardAlpha" operator="out"/>
<feColorMatrix type="matrix" values="0 0 0 0 1 0 0 0 0 1 0 0 0 0 1 0 0 0 0.12 0"/>
<feBlend mode="normal" in2="effect1_backgroundBlur_248_5885" result="effect2_dropShadow_248_5885"/>
<feColorMatrix in="SourceAlpha" type="matrix" values="0 0 0 0 0 0 0 0 0 0 0 0 0 0 0 0 0 0 127 0" result="hardAlpha"/>
<feMorphology radius="9.59679" operator="dilate" in="SourceAlpha" result="effect3_dropShadow_248_5885"/>
<feOffset dy="1.91936"/>
<feGaussianBlur stdDeviation="19.1936"/>
<feComposite in2="hardAlpha" operator="out"/>
<feColorMatrix type="matrix" values="0 0 0 0 1 0 0 0 0 1 0 0 0 0 1 0 0 0 0.28 0"/>
<feBlend mode="normal" in2="effect2_dropShadow_248_5885" result="effect3_dropShadow_248_5885"/>
<feBlend mode="normal" in="SourceGraphic" in2="effect3_dropShadow_248_5885" result="shape"/>
<feColorMatrix in="SourceAlpha" type="matrix" values="0 0 0 0 0 0 0 0 0 0 0 0 0 0 0 0 0 0 127 0" result="hardAlpha"/>
<feOffset dy="0.665269"/>
<feGaussianBlur stdDeviation="13.3054"/>
<feComposite in2="hardAlpha" operator="arithmetic" k2="-1" k3="1"/>
<feColorMatrix type="matrix" values="0 0 0 0 0.193611 0 0 0 0 0.247279 0 0 0 0 0.683333 0 0 0 1 0"/>
<feBlend mode="normal" in2="shape" result="effect4_innerShadow_248_5885"/>
<feColorMatrix in="SourceAlpha" type="matrix" values="0 0 0 0 0 0 0 0 0 0 0 0 0 0 0 0 0 0 127 0" result="hardAlpha"/>
<feOffset dy="2.66108"/>
<feGaussianBlur stdDeviation="5.98742"/>
<feComposite in2="hardAlpha" operator="arithmetic" k2="-1" k3="1"/>
<feColorMatrix type="matrix" values="0 0 0 0 0.193611 0 0 0 0 0.247279 0 0 0 0 0.683333 0 0 0 1 0"/>
<feBlend mode="normal" in2="effect4_innerShadow_248_5885" result="effect5_innerShadow_248_5885"/>
<feColorMatrix in="SourceAlpha" type="matrix" values="0 0 0 0 0 0 0 0 0 0 0 0 0 0 0 0 0 0 127 0" result="hardAlpha"/>
<feMorphology radius="31.9329" operator="dilate" in="SourceAlpha" result="effect6_innerShadow_248_5885"/>
<feOffset dy="65.1964"/>
<feGaussianBlur stdDeviation="33.2635"/>
<feComposite in2="hardAlpha" operator="arithmetic" k2="-1" k3="1"/>
<feColorMatrix type="matrix" values="0 0 0 0 0.193611 0 0 0 0 0.247279 0 0 0 0 0.683333 0 0 0 1 0"/>
<feBlend mode="normal" in2="effect5_innerShadow_248_5885" result="effect6_innerShadow_248_5885"/>
<feColorMatrix in="SourceAlpha" type="matrix" values="0 0 0 0 0 0 0 0 0 0 0 0 0 0 0 0 0 0 127 0" result="hardAlpha"/>
<feMorphology radius="22.7576" operator="dilate" in="SourceAlpha" result="effect7_innerShadow_248_5885"/>
<feOffset dy="-54.5521"/>
<feGaussianBlur stdDeviation="39.6474"/>
<feComposite in2="hardAlpha" operator="arithmetic" k2="-1" k3="1"/>
<feColorMatrix type="matrix" values="0 0 0 0 1 0 0 0 0 1 0 0 0 0 1 0 0 0 1 0"/>
<feBlend mode="normal" in2="effect6_innerShadow_248_5885" result="effect7_innerShadow_248_5885"/>
<feColorMatrix in="SourceAlpha" type="matrix" values="0 0 0 0 0 0 0 0 0 0 0 0 0 0 0 0 0 0 127 0" result="hardAlpha"/>
<feMorphology radius="2.66108" operator="dilate" in="SourceAlpha" result="effect8_innerShadow_248_5885"/>
<feOffset dy="4.65688"/>
<feGaussianBlur stdDeviation="3.65898"/>
<feComposite in2="hardAlpha" operator="arithmetic" k2="-1" k3="1"/>
<feColorMatrix type="matrix" values="0 0 0 0 1 0 0 0 0 1 0 0 0 0 1 0 0 0 0.98 0"/>
<feBlend mode="normal" in2="effect7_innerShadow_248_5885" result="effect8_innerShadow_248_5885"/>
<feColorMatrix in="SourceAlpha" type="matrix" values="0 0 0 0 0 0 0 0 0 0 0 0 0 0 0 0 0 0 127 0" result="hardAlpha"/>
<feMorphology radius="23.9497" operator="dilate" in="SourceAlpha" result="effect9_innerShadow_248_5885"/>
<feOffset dy="25.9455"/>
<feGaussianBlur stdDeviation="18.6275"/>
<feComposite in2="hardAlpha" operator="arithmetic" k2="-1" k3="1"/>
<feColorMatrix type="matrix" values="0 0 0 0 1 0 0 0 0 1 0 0 0 0 1 0 0 0 1 0"/>
<feBlend mode="normal" in2="effect8_innerShadow_248_5885" result="effect9_innerShadow_248_5885"/>
</filter>
<filter id="filter4_bddiiiiii_248_5885" x="-365.365" y="457.532" width="492.118" height="499.878" filterUnits="userSpaceOnUse" color-interpolation-filters="sRGB">
<feFlood flood-opacity="0" result="BackgroundImageFix"/>
<feGaussianBlur in="BackgroundImageFix" stdDeviation="33.2635"/>
<feComposite in2="SourceAlpha" operator="in" result="effect1_backgroundBlur_248_5885"/>
<feColorMatrix in="SourceAlpha" type="matrix" values="0 0 0 0 0 0 0 0 0 0 0 0 0 0 0 0 0 0 127 0" result="hardAlpha"/>
<feMorphology radius="9.59679" operator="dilate" in="SourceAlpha" result="effect2_dropShadow_248_5885"/>
<feOffset dy="1.91936"/>
<feGaussianBlur stdDeviation="11.996"/>
<feComposite in2="hardAlpha" operator="out"/>
<feColorMatrix type="matrix" values="0 0 0 0 1 0 0 0 0 1 0 0 0 0 1 0 0 0 0.12 0"/>
<feBlend mode="normal" in2="effect1_backgroundBlur_248_5885" result="effect2_dropShadow_248_5885"/>
<feColorMatrix in="SourceAlpha" type="matrix" values="0 0 0 0 0 0 0 0 0 0 0 0 0 0 0 0 0 0 127 0" result="hardAlpha"/>
<feMorphology radius="9.59679" operator="dilate" in="SourceAlpha" result="effect3_dropShadow_248_5885"/>
<feOffset dy="1.91936"/>
<feGaussianBlur stdDeviation="19.1936"/>
<feComposite in2="hardAlpha" operator="out"/>
<feColorMatrix type="matrix" values="0 0 0 0 1 0 0 0 0 1 0 0 0 0 1 0 0 0 0.28 0"/>
<feBlend mode="normal" in2="effect2_dropShadow_248_5885" result="effect3_dropShadow_248_5885"/>
<feBlend mode="normal" in="SourceGraphic" in2="effect3_dropShadow_248_5885" result="shape"/>
<feColorMatrix in="SourceAlpha" type="matrix" values="0 0 0 0 0 0 0 0 0 0 0 0 0 0 0 0 0 0 127 0" result="hardAlpha"/>
<feOffset dy="0.665269"/>
<feGaussianBlur stdDeviation="13.3054"/>
<feComposite in2="hardAlpha" operator="arithmetic" k2="-1" k3="1"/>
<feColorMatrix type="matrix" values="0 0 0 0 0.193611 0 0 0 0 0.247279 0 0 0 0 0.683333 0 0 0 1 0"/>
<feBlend mode="normal" in2="shape" result="effect4_innerShadow_248_5885"/>
<feColorMatrix in="SourceAlpha" type="matrix" values="0 0 0 0 0 0 0 0 0 0 0 0 0 0 0 0 0 0 127 0" result="hardAlpha"/>
<feOffset dy="2.66108"/>
<feGaussianBlur stdDeviation="5.98742"/>
<feComposite in2="hardAlpha" operator="arithmetic" k2="-1" k3="1"/>
<feColorMatrix type="matrix" values="0 0 0 0 0.193611 0 0 0 0 0.247279 0 0 0 0 0.683333 0 0 0 1 0"/>
<feBlend mode="normal" in2="effect4_innerShadow_248_5885" result="effect5_innerShadow_248_5885"/>
<feColorMatrix in="SourceAlpha" type="matrix" values="0 0 0 0 0 0 0 0 0 0 0 0 0 0 0 0 0 0 127 0" result="hardAlpha"/>
<feMorphology radius="31.9329" operator="dilate" in="SourceAlpha" result="effect6_innerShadow_248_5885"/>
<feOffset dy="65.1964"/>
<feGaussianBlur stdDeviation="33.2635"/>
<feComposite in2="hardAlpha" operator="arithmetic" k2="-1" k3="1"/>
<feColorMatrix type="matrix" values="0 0 0 0 0.193611 0 0 0 0 0.247279 0 0 0 0 0.683333 0 0 0 1 0"/>
<feBlend mode="normal" in2="effect5_innerShadow_248_5885" result="effect6_innerShadow_248_5885"/>
<feColorMatrix in="SourceAlpha" type="matrix" values="0 0 0 0 0 0 0 0 0 0 0 0 0 0 0 0 0 0 127 0" result="hardAlpha"/>
<feMorphology radius="22.7576" operator="dilate" in="SourceAlpha" result="effect7_innerShadow_248_5885"/>
<feOffset dy="-54.5521"/>
<feGaussianBlur stdDeviation="39.6474"/>
<feComposite in2="hardAlpha" operator="arithmetic" k2="-1" k3="1"/>
<feColorMatrix type="matrix" values="0 0 0 0 1 0 0 0 0 1 0 0 0 0 1 0 0 0 1 0"/>
<feBlend mode="normal" in2="effect6_innerShadow_248_5885" result="effect7_innerShadow_248_5885"/>
<feColorMatrix in="SourceAlpha" type="matrix" values="0 0 0 0 0 0 0 0 0 0 0 0 0 0 0 0 0 0 127 0" result="hardAlpha"/>
<feMorphology radius="2.66108" operator="dilate" in="SourceAlpha" result="effect8_innerShadow_248_5885"/>
<feOffset dy="4.65688"/>
<feGaussianBlur stdDeviation="3.65898"/>
<feComposite in2="hardAlpha" operator="arithmetic" k2="-1" k3="1"/>
<feColorMatrix type="matrix" values="0 0 0 0 1 0 0 0 0 1 0 0 0 0 1 0 0 0 0.98 0"/>
<feBlend mode="normal" in2="effect7_innerShadow_248_5885" result="effect8_innerShadow_248_5885"/>
<feColorMatrix in="SourceAlpha" type="matrix" values="0 0 0 0 0 0 0 0 0 0 0 0 0 0 0 0 0 0 127 0" result="hardAlpha"/>
<feMorphology radius="23.9497" operator="dilate" in="SourceAlpha" result="effect9_innerShadow_248_5885"/>
<feOffset dy="25.9455"/>
<feGaussianBlur stdDeviation="18.6275"/>
<feComposite in2="hardAlpha" operator="arithmetic" k2="-1" k3="1"/>
<feColorMatrix type="matrix" values="0 0 0 0 1 0 0 0 0 1 0 0 0 0 1 0 0 0 1 0"/>
<feBlend mode="normal" in2="effect8_innerShadow_248_5885" result="effect9_innerShadow_248_5885"/>
</filter>
<filter id="filter5_biiiiii_248_5885" x="241.075" y="2318.42" width="580.606" height="592.476" filterUnits="userSpaceOnUse" color-interpolation-filters="sRGB">
<feFlood flood-opacity="0" result="BackgroundImageFix"/>
<feGaussianBlur in="BackgroundImageFix" stdDeviation="36.5492"/>
<feComposite in2="SourceAlpha" operator="in" result="effect1_backgroundBlur_248_5885"/>
<feBlend mode="normal" in="SourceGraphic" in2="effect1_backgroundBlur_248_5885" result="shape"/>
<feColorMatrix in="SourceAlpha" type="matrix" values="0 0 0 0 0 0 0 0 0 0 0 0 0 0 0 0 0 0 127 0" result="hardAlpha"/>
<feOffset dy="0.730985"/>
<feGaussianBlur stdDeviation="14.6197"/>
<feComposite in2="hardAlpha" operator="arithmetic" k2="-1" k3="1"/>
<feColorMatrix type="matrix" values="0 0 0 0 0 0 0 0 0 0.384314 0 0 0 0 0.360784 0 0 0 1 0"/>
<feBlend mode="normal" in2="shape" result="effect2_innerShadow_248_5885"/>
<feColorMatrix in="SourceAlpha" type="matrix" values="0 0 0 0 0 0 0 0 0 0 0 0 0 0 0 0 0 0 127 0" result="hardAlpha"/>
<feOffset dy="2.92394"/>
<feGaussianBlur stdDeviation="6.57886"/>
<feComposite in2="hardAlpha" operator="arithmetic" k2="-1" k3="1"/>
<feColorMatrix type="matrix" values="0 0 0 0 0 0 0 0 0 0.384314 0 0 0 0 0.360784 0 0 0 1 0"/>
<feBlend mode="normal" in2="effect2_innerShadow_248_5885" result="effect3_innerShadow_248_5885"/>
<feColorMatrix in="SourceAlpha" type="matrix" values="0 0 0 0 0 0 0 0 0 0 0 0 0 0 0 0 0 0 127 0" result="hardAlpha"/>
<feMorphology radius="35.0873" operator="dilate" in="SourceAlpha" result="effect4_innerShadow_248_5885"/>
<feOffset dy="71.6365"/>
<feGaussianBlur stdDeviation="36.5492"/>
<feComposite in2="hardAlpha" operator="arithmetic" k2="-1" k3="1"/>
<feColorMatrix type="matrix" values="0 0 0 0 0 0 0 0 0 0.384314 0 0 0 0 0.360784 0 0 0 1 0"/>
<feBlend mode="normal" in2="effect3_innerShadow_248_5885" result="effect4_innerShadow_248_5885"/>
<feColorMatrix in="SourceAlpha" type="matrix" values="0 0 0 0 0 0 0 0 0 0 0 0 0 0 0 0 0 0 127 0" result="hardAlpha"/>
<feMorphology radius="25.0056" operator="dilate" in="SourceAlpha" result="effect5_innerShadow_248_5885"/>
<feOffset dy="-59.9408"/>
<feGaussianBlur stdDeviation="43.5637"/>
<feComposite in2="hardAlpha" operator="arithmetic" k2="-1" k3="1"/>
<feColorMatrix type="matrix" values="0 0 0 0 0.193611 0 0 0 0 0.247279 0 0 0 0 0.683333 0 0 0 0.13 0"/>
<feBlend mode="normal" in2="effect4_innerShadow_248_5885" result="effect5_innerShadow_248_5885"/>
<feColorMatrix in="SourceAlpha" type="matrix" values="0 0 0 0 0 0 0 0 0 0 0 0 0 0 0 0 0 0 127 0" result="hardAlpha"/>
<feMorphology radius="2.92394" operator="dilate" in="SourceAlpha" result="effect6_innerShadow_248_5885"/>
<feOffset dy="5.11689"/>
<feGaussianBlur stdDeviation="4.02042"/>
<feComposite in2="hardAlpha" operator="arithmetic" k2="-1" k3="1"/>
<feColorMatrix type="matrix" values="0 0 0 0 1 0 0 0 0 1 0 0 0 0 1 0 0 0 0.98 0"/>
<feBlend mode="normal" in2="effect5_innerShadow_248_5885" result="effect6_innerShadow_248_5885"/>
<feColorMatrix in="SourceAlpha" type="matrix" values="0 0 0 0 0 0 0 0 0 0 0 0 0 0 0 0 0 0 127 0" result="hardAlpha"/>
<feMorphology radius="26.3155" operator="dilate" in="SourceAlpha" result="effect7_innerShadow_248_5885"/>
<feOffset dy="28.5084"/>
<feGaussianBlur stdDeviation="20.4676"/>
<feComposite in2="hardAlpha" operator="arithmetic" k2="-1" k3="1"/>
<feColorMatrix type="matrix" values="0 0 0 0 0 0 0 0 0 0.384314 0 0 0 0 0.360784 0 0 0 1 0"/>
<feBlend mode="normal" in2="effect6_innerShadow_248_5885" result="effect7_innerShadow_248_5885"/>
</filter>
<filter id="filter6_f_248_5885" x="-753" y="2708" width="1329" height="1332" filterUnits="userSpaceOnUse" color-interpolation-filters="sRGB">
<feFlood flood-opacity="0" result="BackgroundImageFix"/>
<feBlend mode="normal" in="SourceGraphic" in2="BackgroundImageFix" result="shape"/>
<feGaussianBlur stdDeviation="217" result="effect1_foregroundBlur_248_5885"/>
</filter>
<filter id="filter7_f_248_5885" x="-221" y="4117" width="1302" height="1305" filterUnits="userSpaceOnUse" color-interpolation-filters="sRGB">
<feFlood flood-opacity="0" result="BackgroundImageFix"/>
<feBlend mode="normal" in="SourceGraphic" in2="BackgroundImageFix" result="shape"/>
<feGaussianBlur stdDeviation="217" result="effect1_foregroundBlur_248_5885"/>
</filter>
<filter id="filter8_f_248_5885" x="-154" y="5019" width="1329" height="1332" filterUnits="userSpaceOnUse" color-interpolation-filters="sRGB">
<feFlood flood-opacity="0" result="BackgroundImageFix"/>
<feBlend mode="normal" in="SourceGraphic" in2="BackgroundImageFix" result="shape"/>
<feGaussianBlur stdDeviation="217" result="effect1_foregroundBlur_248_5885"/>
</filter>
<filter id="filter9_f_248_5885" x="-291" y="9712" width="1329" height="1332" filterUnits="userSpaceOnUse" color-interpolation-filters="sRGB">
<feFlood flood-opacity="0" result="BackgroundImageFix"/>
<feBlend mode="normal" in="SourceGraphic" in2="BackgroundImageFix" result="shape"/>
<feGaussianBlur stdDeviation="217" result="effect1_foregroundBlur_248_5885"/>
</filter>
<linearGradient id="paint0_linear_248_5885" x1="315.5" y1="251" x2="315.5" y2="352" gradientUnits="userSpaceOnUse">
<stop stop-color="white"/>
<stop offset="1" stop-color="white" stop-opacity="0"/>
</linearGradient>
<clipPath id="clip0_248_5885">
<rect width="393" height="12464" fill="white"/>
</clipPath>
</defs>
</svg>
