<svg width="176" height="63" viewBox="0 0 176 63" fill="none" xmlns="http://www.w3.org/2000/svg">
<g filter="url(#filter0_dd_248_7665)">
<rect x="4" width="168" height="55" rx="27.5" fill="white" fill-opacity="0.05" shape-rendering="crispEdges"/>
<path d="M42.4227 35L42.4227 21.88L44.0827 21.88L44.0827 33.58L49.8227 33.58L49.8227 35L42.4227 35ZM53.7919 35.24C52.9785 35.24 52.2985 35 51.7519 34.52C51.2185 34.0267 50.9519 33.3467 50.9519 32.48C50.9519 31.4133 51.4252 30.6 52.3719 30.04C53.3319 29.4667 54.8452 29.0667 56.9119 28.84C56.9119 28.4267 56.8519 28.0333 56.7319 27.66C56.6252 27.2867 56.4252 26.9867 56.1319 26.76C55.8519 26.52 55.4452 26.4 54.9119 26.4C54.3519 26.4 53.8252 26.5067 53.3319 26.72C52.8385 26.9333 52.3985 27.1733 52.0119 27.44L51.3719 26.3C51.8252 26.0067 52.3785 25.7267 53.0319 25.46C53.6985 25.18 54.4185 25.04 55.1919 25.04C56.3785 25.04 57.2385 25.4067 57.7719 26.14C58.3052 26.86 58.5719 27.8267 58.5719 29.04L58.5719 35L57.2119 35L57.0719 33.84L57.0119 33.84C56.5585 34.2133 56.0585 34.54 55.5119 34.82C54.9785 35.1 54.4052 35.24 53.7919 35.24ZM54.2719 33.92C54.7385 33.92 55.1785 33.8067 55.5919 33.58C56.0052 33.3533 56.4452 33.0333 56.9119 32.62L56.9119 29.92C55.2985 30.12 54.1652 30.42 53.5119 30.82C52.8719 31.22 52.5519 31.7333 52.5519 32.36C52.5519 32.9067 52.7185 33.3067 53.0519 33.56C53.3852 33.8 53.7919 33.92 54.2719 33.92ZM64.0326 35.24C63.0059 35.24 62.2526 34.92 61.7726 34.28C61.2926 33.6267 61.0526 32.68 61.0526 31.44L61.0526 25.28L62.7126 25.28L62.7126 31.22C62.7126 32.1267 62.8526 32.7867 63.1326 33.2C63.4259 33.6133 63.8926 33.82 64.5326 33.82C65.0392 33.82 65.4859 33.6933 65.8726 33.44C66.2726 33.1733 66.6992 32.7533 67.1526 32.18L67.1526 25.28L68.7926 25.28L68.7926 35L67.4326 35L67.2926 33.48L67.2326 33.48C66.7792 34.0133 66.2992 34.44 65.7926 34.76C65.2859 35.08 64.6992 35.24 64.0326 35.24ZM71.634 35L71.634 25.28L72.994 25.28L73.134 26.68L73.194 26.68C73.6607 26.2133 74.154 25.8267 74.674 25.52C75.194 25.2 75.7874 25.04 76.454 25.04C77.4807 25.04 78.2274 25.3667 78.694 26.02C79.174 26.66 79.414 27.6 79.414 28.84L79.414 35L77.774 35L77.774 29.06C77.774 28.1533 77.6274 27.4933 77.334 27.08C77.0407 26.6667 76.574 26.46 75.934 26.46C75.4407 26.46 74.994 26.5867 74.594 26.84C74.2074 27.0933 73.7674 27.4667 73.274 27.96L73.274 35L71.634 35ZM85.9741 35.24C85.1208 35.24 84.3474 35.04 83.6541 34.64C82.9608 34.24 82.4141 33.66 82.0141 32.9C81.6141 32.14 81.4141 31.2267 81.4141 30.16C81.4141 29.0667 81.6274 28.14 82.0541 27.38C82.4941 26.62 83.0674 26.04 83.7741 25.64C84.4941 25.24 85.2674 25.04 86.0941 25.04C86.7341 25.04 87.2808 25.1533 87.7341 25.38C88.2008 25.6067 88.6008 25.8733 88.9341 26.18L88.0941 27.26C87.8141 27.0067 87.5141 26.8 87.1941 26.64C86.8874 26.48 86.5408 26.4 86.1541 26.4C85.5674 26.4 85.0408 26.56 84.5741 26.88C84.1208 27.1867 83.7608 27.6267 83.4941 28.2C83.2408 28.76 83.1141 29.4133 83.1141 30.16C83.1141 31.2667 83.3874 32.1667 83.9341 32.86C84.4941 33.54 85.2208 33.88 86.1141 33.88C86.5674 33.88 86.9874 33.7867 87.3741 33.6C87.7608 33.4 88.1008 33.1667 88.3941 32.9L89.1141 34C88.6741 34.3867 88.1874 34.6933 87.6541 34.92C87.1208 35.1333 86.5608 35.24 85.9741 35.24ZM90.8178 35L90.8178 20.76L92.4578 20.76L92.4578 24.64L92.3978 26.64C92.8644 26.2 93.3511 25.8267 93.8578 25.52C94.3778 25.2 94.9711 25.04 95.6378 25.04C96.6644 25.04 97.4111 25.3667 97.8778 26.02C98.3578 26.66 98.5978 27.6 98.5978 28.84L98.5978 35L96.9578 35L96.9578 29.06C96.9578 28.1533 96.8111 27.4933 96.5178 27.08C96.2244 26.6667 95.7578 26.46 95.1178 26.46C94.6244 26.46 94.1778 26.5867 93.7778 26.84C93.3911 27.0933 92.9511 27.4667 92.4578 27.96L92.4578 35L90.8178 35ZM107.246 27.66L106.626 29.66L110.566 29.66L109.946 27.66C109.706 26.9267 109.479 26.2 109.266 25.48C109.052 24.7467 108.839 24 108.626 23.24L108.546 23.24C108.346 24 108.139 24.7467 107.926 25.48C107.712 26.2 107.486 26.9267 107.246 27.66ZM103.246 35L107.686 21.88L109.566 21.88L114.006 35L112.226 35L110.986 31L106.206 31L104.946 35L103.246 35ZM115.267 39.1L115.267 25.28L116.627 25.28L116.767 26.4L116.827 26.4C117.267 26.0267 117.747 25.7067 118.267 25.44C118.801 25.1733 119.354 25.04 119.927 25.04C121.181 25.04 122.134 25.4933 122.787 26.4C123.441 27.2933 123.767 28.4933 123.767 30C123.767 31.0933 123.567 32.0333 123.167 32.82C122.781 33.6067 122.267 34.2067 121.627 34.62C121.001 35.0333 120.314 35.24 119.567 35.24C119.114 35.24 118.661 35.14 118.207 34.94C117.767 34.74 117.321 34.4667 116.867 34.12L116.907 35.82L116.907 39.1L115.267 39.1ZM119.287 33.86C120.087 33.86 120.747 33.52 121.267 32.84C121.801 32.1467 122.067 31.2 122.067 30C122.067 28.9333 121.867 28.0733 121.467 27.42C121.081 26.7533 120.427 26.42 119.507 26.42C119.094 26.42 118.674 26.5333 118.247 26.76C117.834 26.9867 117.387 27.3133 116.907 27.74L116.907 32.84C117.347 33.2133 117.774 33.48 118.187 33.64C118.601 33.7867 118.967 33.86 119.287 33.86ZM125.924 39.1L125.924 25.28L127.284 25.28L127.424 26.4L127.484 26.4C127.924 26.0267 128.404 25.7067 128.924 25.44C129.457 25.1733 130.01 25.04 130.584 25.04C131.837 25.04 132.79 25.4933 133.444 26.4C134.097 27.2933 134.424 28.4933 134.424 30C134.424 31.0933 134.224 32.0333 133.824 32.82C133.437 33.6067 132.924 34.2067 132.284 34.62C131.657 35.0333 130.97 35.24 130.224 35.24C129.77 35.24 129.317 35.14 128.864 34.94C128.424 34.74 127.977 34.4667 127.524 34.12L127.564 35.82L127.564 39.1L125.924 39.1ZM129.944 33.86C130.744 33.86 131.404 33.52 131.924 32.84C132.457 32.1467 132.724 31.2 132.724 30C132.724 28.9333 132.524 28.0733 132.124 27.42C131.737 26.7533 131.084 26.42 130.164 26.42C129.75 26.42 129.33 26.5333 128.904 26.76C128.49 26.9867 128.044 27.3133 127.564 27.74L127.564 32.84C128.004 33.2133 128.43 33.48 128.844 33.64C129.257 33.7867 129.624 33.86 129.944 33.86Z" fill="#A7ADDE"/>
<rect x="5.5" y="1.5" width="165" height="52" rx="26" stroke="url(#paint0_linear_248_7665)" stroke-width="3" shape-rendering="crispEdges"/>
</g>
<defs>
<filter id="filter0_dd_248_7665" x="0" y="0" width="176" height="63" filterUnits="userSpaceOnUse" color-interpolation-filters="sRGB">
<feFlood flood-opacity="0" result="BackgroundImageFix"/>
<feColorMatrix in="SourceAlpha" type="matrix" values="0 0 0 0 0 0 0 0 0 0 0 0 0 0 0 0 0 0 127 0" result="hardAlpha"/>
<feOffset dy="4"/>
<feGaussianBlur stdDeviation="2"/>
<feComposite in2="hardAlpha" operator="out"/>
<feColorMatrix type="matrix" values="0 0 0 0 0 0 0 0 0 0 0 0 0 0 0 0 0 0 0.25 0"/>
<feBlend mode="normal" in2="BackgroundImageFix" result="effect1_dropShadow_248_7665"/>
<feColorMatrix in="SourceAlpha" type="matrix" values="0 0 0 0 0 0 0 0 0 0 0 0 0 0 0 0 0 0 127 0" result="hardAlpha"/>
<feOffset dy="4"/>
<feGaussianBlur stdDeviation="2"/>
<feComposite in2="hardAlpha" operator="out"/>
<feColorMatrix type="matrix" values="0 0 0 0 0 0 0 0 0 0 0 0 0 0 0 0 0 0 0.25 0"/>
<feBlend mode="normal" in2="effect1_dropShadow_248_7665" result="effect2_dropShadow_248_7665"/>
<feBlend mode="normal" in="SourceGraphic" in2="effect2_dropShadow_248_7665" result="shape"/>
</filter>
<linearGradient id="paint0_linear_248_7665" x1="88" y1="0" x2="88" y2="55" gradientUnits="userSpaceOnUse">
<stop stop-color="#05E2C8"/>
<stop offset="0.528846" stop-color="#FAFAFA" stop-opacity="0.15"/>
<stop offset="1" stop-color="#0FF185" stop-opacity="0.22"/>
</linearGradient>
</defs>
</svg>
